<svg width="auto" height="auto" viewBox="0 0 16 16" preserveAspectRatio="xMidYMid meet" version="1.1" xmlns="http://www.w3.org/2000/svg" xmlns:xlink="http://www.w3.org/1999/xlink">
    <g fill-rule="nonzero" stroke="none" stroke-width="1" stroke-linecap="butt" stroke-linejoin="miter" stroke-miterlimit="10" stroke-dasharray="" stroke-dashoffset="0" style="mix-blend-mode: normal">
        <path d="M7.49219,0.99219c-0.13261,0.00207 -0.25896,0.05673 -0.35127,0.15197c-0.0923,0.09523 -0.14299,0.22324 -0.14092,0.35584v0.52539c-1.13986,0.10359 -2.16845,0.56988 -3.00195,1.26367l-1.14453,-1.14258c-0.09421,-0.09737 -0.22389,-0.15234 -0.35937,-0.15234c-0.20372,0.00004 -0.38705,0.12367 -0.46345,0.31252c-0.0764,0.18885 -0.03059,0.40518 0.1158,0.54685l1.14258,1.14453c-0.695,0.83312 -1.16228,1.86149 -1.26562,3.00195h-0.52344c-0.18032,-0.00255 -0.34804,0.09219 -0.43894,0.24794c-0.0909,0.15575 -0.0909,0.34838 0,0.50413c0.0909,0.15575 0.25863,0.25049 0.43894,0.24794h0.52344c0.10339,1.14101 0.57007,2.17059 1.26563,3.00391l-1.14258,1.14258c-0.13061,0.12541 -0.18322,0.31163 -0.13754,0.48685c0.04568,0.17522 0.18251,0.31205 0.35773,0.35773c0.17522,0.04568 0.36144,-0.00693 0.48685,-0.13754l1.14258,-1.14258c0.83369,0.69431 1.86354,1.16003 3.00391,1.26367v0.52539c-0.00255,0.18032 0.09219,0.34804 0.24794,0.43894c0.15575,0.0909 0.34838,0.0909 0.50413,0c0.15575,-0.0909 0.25049,-0.25863 0.24794,-0.43894v-0.52539c1.14037,-0.10364 2.17022,-0.56936 3.00391,-1.26367l1.14258,1.14258c0.12541,0.13061 0.31163,0.18321 0.48684,0.13753c0.17521,-0.04568 0.31204,-0.18251 0.35772,-0.35772c0.04568,-0.17521 -0.00693,-0.36143 -0.13753,-0.48684l-1.14258,-1.14258c0.69556,-0.83332 1.16223,-1.8629 1.26562,-3.00391h0.52344c0.18032,0.00255 0.34804,-0.09219 0.43894,-0.24794c0.0909,-0.15575 0.0909,-0.34838 0,-0.50413c-0.0909,-0.15575 -0.25863,-0.25049 -0.43894,-0.24794h-0.52344c-0.10334,-1.14046 -0.57063,-2.16883 -1.26562,-3.00195l1.14258,-1.14453c0.14714,-0.14386 0.19113,-0.36316 0.11086,-0.55264c-0.08028,-0.18947 -0.26843,-0.31042 -0.47414,-0.30478c-0.12976,0.00361 -0.25303,0.05754 -0.34375,0.15039l-1.14453,1.14258c-0.8335,-0.69379 -1.86209,-1.16008 -3.00195,-1.26367v-0.52539c0.00212,-0.13532 -0.0507,-0.26572 -0.1464,-0.36141c-0.0957,-0.0957 -0.22609,-0.14852 -0.36141,-0.1464zM7.5,3c2.47443,0 4.46734,1.98326 4.49414,4.45117c-0.00241,0.03189 -0.00176,0.06394 0.00195,0.0957c-0.01253,1.20574 -0.49362,2.29357 -1.27344,3.0918c-0.02476,0.01929 -0.04765,0.04087 -0.06836,0.06445c-0.80035,0.78565 -1.89198,1.27734 -3.10352,1.29102c-0.01948,-0.0018 -0.03904,-0.00245 -0.05859,-0.00195c-0.01307,0.00079 -0.0261,0.00209 -0.03906,0.00391c-1.2115,-0.01258 -2.30261,-0.50398 -3.10352,-1.28906c-0.00065,-0.00065 -0.0013,-0.0013 -0.00195,-0.00195c-0.02114,-0.02504 -0.04469,-0.04793 -0.07031,-0.06836c-0.78914,-0.80915 -1.27734,-1.91269 -1.27734,-3.13672c0,-2.4912 2.0088,-4.5 4.5,-4.5zM5.5,5c-0.27614,0 -0.5,0.22386 -0.5,0.5c0,0.27614 0.22386,0.5 0.5,0.5c0.27614,0 0.5,-0.22386 0.5,-0.5c0,-0.27614 -0.22386,-0.5 -0.5,-0.5zM9.5,5c-0.27614,0 -0.5,0.22386 -0.5,0.5c0,0.27614 0.22386,0.5 0.5,0.5c0.27614,0 0.5,-0.22386 0.5,-0.5c0,-0.27614 -0.22386,-0.5 -0.5,-0.5zM7.5,7c-0.27614,0 -0.5,0.22386 -0.5,0.5c0,0.27614 0.22386,0.5 0.5,0.5c0.27614,0 0.5,-0.22386 0.5,-0.5c0,-0.27614 -0.22386,-0.5 -0.5,-0.5zM5.5,9c-0.27614,0 -0.5,0.22386 -0.5,0.5c0,0.27614 0.22386,0.5 0.5,0.5c0.27614,0 0.5,-0.22386 0.5,-0.5c0,-0.27614 -0.22386,-0.5 -0.5,-0.5zM9.5,9c-0.27614,0 -0.5,0.22386 -0.5,0.5c0,0.27614 0.22386,0.5 0.5,0.5c0.27614,0 0.5,-0.22386 0.5,-0.5c0,-0.27614 -0.22386,-0.5 -0.5,-0.5z"></path>
    </g>
</svg>